<?xml version="1.0" encoding="UTF-8" standalone="no"?>
<!-- Created with Inkscape (http://www.inkscape.org/) -->

<svg
   version="1.1"
   id="svg35676"
   width="275"
   height="275"
   viewBox="0 0 275 275"
   sodipodi:docname="During_Day_medication.svg"
   inkscape:version="1.2.1 (9c6d41e410, 2022-07-14)"
   xmlns:inkscape="http://www.inkscape.org/namespaces/inkscape"
   xmlns:sodipodi="http://sodipodi.sourceforge.net/DTD/sodipodi-0.dtd"
   xmlns:xlink="http://www.w3.org/1999/xlink"
   xmlns="http://www.w3.org/2000/svg"
   xmlns:svg="http://www.w3.org/2000/svg">
  <defs
     id="defs35680">
    <linearGradient
       inkscape:collect="always"
       id="linearGradient36055">
      <stop
         style="stop-color:#6173b7;stop-opacity:1;"
         offset="0"
         id="stop36051" />
      <stop
         style="stop-color:#3895be;stop-opacity:1;"
         offset="1"
         id="stop36053" />
    </linearGradient>
    <linearGradient
       inkscape:collect="always"
       xlink:href="#linearGradient36055"
       id="linearGradient36057"
       x1="13.014433"
       y1="137.47822"
       x2="262"
       y2="137.47822"
       gradientUnits="userSpaceOnUse" />
  </defs>
  <sodipodi:namedview
     id="namedview35678"
     pagecolor="#ffffff"
     bordercolor="#000000"
     borderopacity="0.25"
     inkscape:showpageshadow="2"
     inkscape:pageopacity="0.0"
     inkscape:pagecheckerboard="0"
     inkscape:deskcolor="#d1d1d1"
     showgrid="false"
     inkscape:zoom="2.9309091"
     inkscape:cx="137.6706"
     inkscape:cy="137.5"
     inkscape:window-width="1920"
     inkscape:window-height="1009"
     inkscape:window-x="-8"
     inkscape:window-y="-8"
     inkscape:window-maximized="1"
     inkscape:current-layer="g35682" />
  <g
     inkscape:groupmode="layer"
     inkscape:label="Image"
     id="g35682">
    <path
       style="fill:url(#linearGradient36057);fill-opacity:1"
       d="m 204.5,244.53411 c -7.7,-4.58121 -16.925,-10.14015 -20.5,-12.35319 -3.575,-2.21304 -10.325,-6.19658 -15,-8.85232 L 160.5,218.5 131,218 l -29.5,-0.5 -5.8699,-2.74957 -5.8699,-2.74957 -5.6301,3.4008 C 58.902485,230.64009 55.139581,231.96823 49,227.80097 42.988335,223.72054 42.366549,221.17329 44.410674,209 c 0.969732,-5.775 1.993729,-11.6797 2.27555,-13.12156 0.482858,-2.47042 0.232804,-2.66257 -4.336911,-3.33265 -13.23455,-1.94065 -22.8573,-10.48898 -27.807645,-24.7028 -1.281205,-3.6787 -1.514787,-13.10184 -1.527115,-61.60656 -0.008,-31.494962 0.384154,-58.044962 0.871463,-58.999999 0.487309,-0.955037 1.922877,-4.117391 3.190151,-7.027453 2.566866,-5.894335 9.382192,-12.871682 15.741959,-16.116193 4.061849,-2.072201 4.88208,-2.092569 83.392034,-2.070823 74.9035,0.02075 79.51112,0.123935 83.28984,1.86528 9.68388,4.462621 17.11318,14.287217 19.55724,25.862758 l 1.10849,5.25 h 9.72079 c 8.44852,0 10.39944,0.338184 14.906,2.583898 6.67498,3.326281 12.36514,9.840856 15.06637,17.249258 2.09208,5.737715 2.14111,7.145623 2.14111,61.482004 0,53.64647 -0.0725,55.80361 -2.05375,61.09896 -4.27937,11.43763 -14.21803,18.91331 -26.90797,20.23967 -3.32105,0.34712 -6.03905,0.90452 -6.04,1.23867 -9.4e-4,0.33415 1.17048,7.02818 2.60316,14.87563 2.43543,13.34001 2.49909,14.42954 0.97866,16.75 -1.40041,2.1373 -2.35196,2.47244 -6.85315,2.4137 -4.70869,-0.0615 -6.61508,-0.89409 -19.22695,-8.39768 z M 58.315741,217.86859 C 61.922105,216.00054 98.830636,194.10167 108.5,188.09286 l 9,-5.59286 38.1662,-0.5 38.1662,-0.5 4.31901,-3.03716 c 5.03746,-3.54238 8.43543,-8.21475 9.88257,-13.58902 0.6653,-2.47073 0.92997,-23.74009 0.74787,-60.09896 C 208.51801,52.09624 208.38087,48.276333 206.63584,45 203.64455,39.383791 200.00619,36.146015 194.27816,34.002882 189.10501,32.067359 186.51092,32 117.14399,32 38.950258,32 38.698925,32.01668 32.003571,37.650449 30.303372,39.081072 27.919533,42.107476 26.70615,44.375791 24.503424,48.493599 24.5,48.590797 24.5,107 v 58.5 l 2.220978,4.15327 C 31.167033,177.96749 38.663914,182 49.67489,182 c 6.705391,0 9.479195,1.46316 9.583215,5.05506 0.03894,1.34472 -1.1282,8.50606 -2.59365,15.91411 C 55.199005,210.37721 54,217.01471 54,217.71917 c 0,1.58131 1.45419,1.63166 4.315741,0.14942 z M 57.352969,149.99942 C 37.155486,143.39924 28.988194,118.70589 40.904642,100.26883 45.793225,92.705243 51.593252,89.046609 65,85.069572 c 5.775,-1.713121 14.55,-4.443733 19.5,-6.068027 4.95,-1.624293 14.625,-4.518772 21.5,-6.432174 6.875,-1.913402 20.6,-6.038946 30.5,-9.167877 21.75303,-6.875122 28.78187,-7.455308 37.66533,-3.109034 27.52536,13.466906 25.35352,51.6798 -3.53093,62.12559 -2.27392,0.82234 -15.1594,4.70725 -28.6344,8.63313 -13.475,3.92588 -26.91945,8.0104 -29.87655,9.0767 C 101.28133,144.03747 74.345346,151.2032 69,151.59994 c -3.750467,0.27837 -7.455351,-0.23075 -11.647031,-1.60052 z M 79,138.57576 c 4.675,-1.3296 14.575,-4.29518 22,-6.59018 7.425,-2.29499 14.04274,-4.3339 14.70609,-4.53091 0.78435,-0.23295 -0.0171,-2.38572 -2.29193,-6.15644 -5.21141,-8.63829 -7.83239,-18.14105 -7.87681,-28.558542 -0.0316,-7.400713 -0.27015,-8.659351 -1.53735,-8.109787 -0.825,0.357789 -11.377598,3.545942 -23.450218,7.084785 -22.243823,6.520325 -25.378435,7.916103 -29.932528,13.328334 -8.882245,10.55595 -4.030443,29.81151 8.641971,34.29777 6.042663,2.13922 10.079212,1.98278 19.740775,-0.76503 z"
       id="path36049" />
  </g>
</svg>
