<?xml version="1.0" encoding="UTF-8" standalone="no"?>
<!-- Created with Inkscape (http://www.inkscape.org/) -->

<svg
   version="1.1"
   id="svg31267"
   width="275"
   height="275"
   viewBox="0 0 275 275"
   sodipodi:docname="During_Day_LargeMeals.svg"
   inkscape:version="1.2.1 (9c6d41e410, 2022-07-14)"
   xmlns:inkscape="http://www.inkscape.org/namespaces/inkscape"
   xmlns:sodipodi="http://sodipodi.sourceforge.net/DTD/sodipodi-0.dtd"
   xmlns:xlink="http://www.w3.org/1999/xlink"
   xmlns="http://www.w3.org/2000/svg"
   xmlns:svg="http://www.w3.org/2000/svg">
  <defs
     id="defs31271">
    <linearGradient
       inkscape:collect="always"
       id="linearGradient31654">
      <stop
         style="stop-color:#6173b7;stop-opacity:1;"
         offset="0"
         id="stop31650" />
      <stop
         style="stop-color:#4c84ba;stop-opacity:1;"
         offset="0.5"
         id="stop33836" />
      <stop
         style="stop-color:#428cbc;stop-opacity:1;"
         offset="0.75"
         id="stop33838" />
      <stop
         style="stop-color:#3d90bd;stop-opacity:1;"
         offset="0.875"
         id="stop33840" />
      <stop
         style="stop-color:#3895be;stop-opacity:1;"
         offset="1"
         id="stop31652" />
    </linearGradient>
    <linearGradient
       inkscape:collect="always"
       xlink:href="#linearGradient31654"
       id="linearGradient31656"
       x1="6.0270328"
       y1="137.83487"
       x2="269.1004"
       y2="137.83487"
       gradientUnits="userSpaceOnUse" />
  </defs>
  <sodipodi:namedview
     id="namedview31269"
     pagecolor="#ffffff"
     bordercolor="#000000"
     borderopacity="0.25"
     inkscape:showpageshadow="2"
     inkscape:pageopacity="0.0"
     inkscape:pagecheckerboard="0"
     inkscape:deskcolor="#d1d1d1"
     showgrid="false"
     inkscape:zoom="2.9309091"
     inkscape:cx="137.6706"
     inkscape:cy="137.5"
     inkscape:window-width="1920"
     inkscape:window-height="1009"
     inkscape:window-x="-8"
     inkscape:window-y="-8"
     inkscape:window-maximized="1"
     inkscape:current-layer="g31273" />
  <g
     inkscape:groupmode="layer"
     inkscape:label="Image"
     id="g31273">
    <path
       style="fill:url(#linearGradient31656);fill-opacity:1"
       d="M 75,248.33072 C 58.487848,246.68327 44.748298,244.50361 40.237772,242.816 34.224244,240.56605 28.646526,236.15092 26.448917,231.90122 24.511341,228.15436 24.686309,218.66693 26.806714,212.5 c 1.643273,-4.77925 1.636868,-5.22075 -0.145055,-10 -1.449696,-3.88819 -1.774519,-6.91861 -1.460787,-13.62831 l 0.403444,-8.6283 -3.810275,0.51106 c -4.840116,0.6492 -12.0973474,-2.04222 -14.2129255,-5.271 -2.3236311,-3.54631 -2.0038017,-9.52197 0.7062343,-13.19522 1.2580424,-1.70518 4.6330422,-5.20931 7.5000002,-7.78695 4.473094,-4.02169 5.213722,-5.20551 5.220204,-8.34395 C 21.041647,129.65144 32.130975,99.519485 45.53915,79.5 62.080033,54.803129 88.082209,36.627538 117.66661,29.082709 c 11.5265,-2.93957 40.35782,-3.017667 51.61017,-0.1398 27.96719,7.152803 46.74499,21.109087 57.25942,42.557091 7.59591,15.494642 15.38405,48.69799 17.01778,72.55225 l 0.65421,9.55225 5.1459,1.82735 c 6.81105,2.41864 14.84802,7.63887 17.50461,11.36971 3.42477,4.80965 2.90342,10.06724 -1.41329,14.25227 -3.54467,3.43656 -3.58105,3.44617 -13.04719,3.44617 -9.04132,0 -9.46188,0.0951 -8.84644,2 0.35539,1.1 0.85993,4.7 1.1212,8 0.39176,4.94821 0.0604,6.80743 -1.89007,10.60603 l -2.36512,4.60603 3.65087,3.60727 c 10.66137,10.53408 5.49991,25.44723 -10.45619,30.21133 -10.90354,3.25553 -55.50339,5.46244 -107.11247,5.30018 -26.4,-0.083 -49.575,-0.30806 -51.5,-0.50012 z m 109.12075,-8.86196 c 47.9403,-2.78279 51.5849,-3.35503 55.31855,-8.68555 2.77974,-3.96865 2.00643,-8.62668 -2.07054,-12.47176 -2.39623,-2.25993 -4.1818,-3.2007 -5.25,-2.76607 -0.89032,0.36225 -4.99376,1.03098 -9.11876,1.48606 -23.13593,2.55244 -37.99495,3.1241 -82.35425,3.16833 l -48.505941,0.0484 -6.542748,9.82684 -6.542747,9.82683 5.722843,0.36001 c 16.731773,1.05255 75.651513,0.5822 99.343593,-0.79306 z m -107.817568,-10.39391 6.608207,-9.92515 -6.705694,-0.6252 c -11.349579,-1.05817 -33.507488,-3.52204 -37.348501,-4.15299 l -3.642806,-0.5984 -1.059211,4.93893 c -1.75925,8.2031 0.531356,13.23907 7.175938,15.77653 3.356903,1.28195 18.993519,3.85178 26.766373,4.39897 0.973886,0.0686 4.177091,-3.76196 8.205694,-9.81269 z m 90.716838,-28.5852 c 3.9105,-2.0222 4.5242,-3.37694 8.98172,-19.82732 2.11065,-7.78928 4.9948,-18.1367 6.40923,-22.99427 2.596,-8.91545 2.50616,-10.83209 -0.62971,-13.43464 -1.47917,-1.2276 -6.77172,-2.7023 -40.66738,-11.33144 -26.59305,-6.77005 -26.94282,-6.75461 -28.82674,1.27197 -0.55846,2.37933 -3.11114,12.87605 -5.67262,23.32605 -2.56148,10.45 -4.64763,20.2304 -4.63588,21.73422 0.0121,1.55154 1.2199,4.07563 2.79224,5.83538 2.50811,2.80707 5.13975,3.74599 27.75,9.90078 13.73852,3.7398 26.46397,6.85138 28.27878,6.91462 1.81481,0.0633 4.61397,-0.56466 6.22036,-1.39535 z m -32.44859,-16.06108 c -1.96855,-1.96855 -1.9617,-3.05504 0.0653,-10.34559 1.59581,-5.7398 1.58126,-6.00132 -0.58227,-10.47059 -1.91848,-3.96304 -2.06336,-5.05523 -1.06993,-8.06535 2.54084,-7.69884 11.56556,-11.04862 17.40064,-6.45874 3.15461,2.48141 5.61633,6.91778 5.61114,10.11204 -0.006,3.42327 -3.36695,8.29635 -6.66503,9.66246 -2.48477,1.02923 -3.15916,2.18882 -4.65899,8.01103 -0.96453,3.74419 -2.27536,7.32929 -2.91296,7.96689 -1.64674,1.64674 -5.34078,1.43492 -7.18785,-0.41215 z m 84.21069,2.02409 c 2.04483,-0.85103 5.56912,-3.3596 7.83175,-5.5746 4.71128,-4.61211 9.26806,-6.01741 15.56521,-4.80031 9.90879,1.91517 18.82092,0.71478 18.82092,-2.53501 0,-2.30101 -7.94918,-8.36513 -13.29149,-10.13956 -4.3005,-1.4284 -6.15714,-1.50379 -13.10929,-0.53235 -4.45457,0.62245 -16.52415,1.13115 -26.82129,1.13045 L 189.05587,164 l -1.46884,5.25 c -3.08655,11.03208 -3.52452,13.21251 -2.79954,13.93749 0.41124,0.41124 4.33979,1.6297 8.73011,2.7077 9.83999,2.41612 20.24689,2.64575 25.26452,0.55747 z M 77.062412,184.12049 c 12.497722,-4.26512 16.986536,-6.23227 16.397217,-7.18581 -0.290071,-0.46935 0.323177,-4.17364 1.362773,-8.23177 l 1.890175,-7.37842 -19.106289,-1.14052 c -19.165252,-1.14404 -30.889844,-2.74449 -42.148141,-5.75338 l -6.041854,-1.61475 -7.708146,7.38983 C 17.468666,164.27008 14,168.08141 14,168.67531 c 0,2.72056 2.93132,3.46813 10.880171,2.77474 4.398525,-0.38369 9.214703,-0.39207 10.702618,-0.0186 1.487914,0.37345 5.452979,3.29543 8.811255,6.4933 3.358276,3.19788 7.455956,6.53002 9.105956,7.40476 4.830372,2.56081 13.8761,2.09667 23.562412,-1.20899 z M 231,155.17588 c 3.85879,-0.57957 4.54218,-1.03759 4.79601,-3.21437 0.28547,-2.44802 -0.071,-2.62064 -10,-4.84309 -11.71826,-2.62294 -27.24216,-7.46561 -40.04601,-12.49233 -7.4079,-2.9083 -8.74604,-3.18142 -8.7242,-1.78064 0.0145,0.93272 1.70814,2.42936 3.88201,3.43054 5.21514,2.40185 9.26332,8.44956 9.86795,14.74209 l 0.4787,4.98192 17.62277,-0.0741 c 9.69252,-0.0408 19.64777,-0.37827 22.12277,-0.75 z m -130.59079,-7.68165 c 0.85311,-3.02817 2.24703,-7.97616 3.09759,-10.99554 1.72866,-6.13648 5.83212,-11.43026 10.73263,-13.8459 4.20461,-2.0726 3.27272,-2.05052 -17.402771,0.41239 -18.055362,2.15079 -43.012273,2.8272 -55.519774,1.50476 l -7.183114,-0.75949 -1.548151,5.21319 c -0.851483,2.86726 -1.8348,7.37406 -2.185149,10.01512 l -0.636998,4.80192 3.868263,1.09024 c 14.739491,4.15417 38.124855,7.2785 59.047306,7.88883 L 98.858083,153 Z M 234.9941,138.25 c -0.0219,-6.49597 -6.65807,-39.247305 -8.28134,-40.870571 -0.25267,-0.252667 -3.7789,0.846283 -7.83608,2.442112 -8.78725,3.456339 -30.31246,10.571889 -37.47133,12.386839 l -5.09465,1.29162 1.09465,4.4781 1.09465,4.47809 10,4.27069 c 10.28799,4.39367 20.39125,7.77179 33.5,11.20101 9.70389,2.53852 13.00185,2.62027 12.9941,0.32211 z m -66.14654,-14 c -0.43946,-9.35109 -3.60662,-16.59356 -8.74544,-19.99855 -4.11745,-2.72824 -11.67562,-3.0222 -16.67749,-0.64866 -4.10433,1.94763 -9.60779,7.87575 -12.40892,13.36641 l -2.07091,4.05932 2.42084,0.9204 c 1.33146,0.50622 3.93138,1.20044 5.7776,1.54272 3.05378,0.56616 3.48074,0.3383 4.73035,-2.52452 1.3153,-3.01327 6.30901,-6.95552 8.82065,-6.96338 0.65683,-0.002 2.45239,1.07848 3.99013,2.40119 2.38055,2.04766 2.79736,3.1656 2.80576,7.52543 l 0.01,5.12051 4,1.02843 c 2.2,0.56564 4.45,1.19367 5,1.39562 2.43136,0.89276 2.69143,0.0923 2.34756,-7.22492 z m -63.97852,-10.36454 c 15.45249,-1.83158 19.45209,-2.61698 20.17142,-3.96106 0.73922,-1.38125 0.0662,-1.98296 -3.82162,-3.41687 C 108.61378,101.85858 86.081343,88.706877 71.234063,77.332478 66.687798,73.849615 62.79015,71 62.572623,71 c -0.217527,0 -3.011897,3.476373 -6.209712,7.725272 -9.001337,11.959974 -15.306354,23.697528 -18.78648,34.973298 -0.635872,2.06026 -0.313609,2.22594 5.122504,2.63351 12.88351,0.96593 43.566798,-0.24157 62.170105,-2.44662 z M 192,99.956664 c 9.075,-2.847601 20.19207,-6.512945 24.70461,-8.145208 l 8.2046,-2.967751 -1.9479,-4.941873 c -2.48392,-6.30175 -6.68258,-14.642804 -9.08763,-18.05349 l -1.86982,-2.651658 -20.00193,19.850595 C 181.00087,93.965107 172,103.29585 172,103.78227 c 0,1.34506 1.06285,2.12185 2.34777,1.71589 0.63372,-0.20022 8.57723,-2.69389 17.65223,-5.541496 z M 135.56469,98.38286 c 7.43239,-5.668958 17.07406,-6.884427 25.58099,-3.224845 l 5.01644,2.158014 16.98677,-16.908014 c 9.34273,-9.299408 18.29235,-18.530226 19.88806,-20.512927 l 2.90129,-3.604913 -5.71912,-4.278377 C 191.30838,45.345826 179.84136,40.300678 167,37.396379 156.57192,35.037886 154.10184,34.841614 140.5,35.290697 122.31125,35.891223 111.54905,38.499088 96.5,45.952646 87.379838,50.469719 69,63.108581 69,64.862971 c 0,0.719793 18.375974,14.029217 26.788384,19.402399 7.537466,4.814337 32.603766,16.60045 35.528336,16.70534 0.4492,0.0161 2.36079,-1.148423 4.24797,-2.58785 z m 5.47049,-37.317119 C 139.61654,58.414974 139.72854,49.671455 141.2,48.2 c 2.14641,-2.146412 5.76485,-1.422645 6.82475,1.3651 1.48538,3.90685 1.17452,10.092774 -0.59618,11.863471 -2.14521,2.145215 -5.14214,1.975137 -6.39339,-0.36283 z m 23.09545,-3.150808 c -5.32789,-4.242127 -6.24721,-6.655497 -3.5592,-9.343504 2.19284,-2.19284 2.61824,-2.069993 8.25148,2.382827 6.36511,5.031327 6.68819,5.616768 4.74023,8.58972 -2.18869,3.34037 -3.46887,3.119276 -9.43251,-1.629043 z M 112.75,59.919901 c -2.97372,-1.73203 -2.11441,-5.466208 2,-8.691177 6.5267,-5.115774 7.91997,-5.558756 10.22708,-3.251642 3.21632,3.216318 2.65097,4.404737 -4.52117,9.503944 -5.51549,3.921371 -5.28556,3.848598 -7.70591,2.438875 z"
       id="path31648" />
  </g>
</svg>
