<?xml version="1.0" encoding="UTF-8" standalone="no"?>
<!-- Created with Inkscape (http://www.inkscape.org/) -->

<svg
   version="1.1"
   id="svg45192"
   width="275"
   height="275"
   viewBox="0 0 275 275"
   sodipodi:docname="During_Day_Nicotine&amp;Caffeine.svg"
   inkscape:version="1.2.1 (9c6d41e410, 2022-07-14)"
   xmlns:inkscape="http://www.inkscape.org/namespaces/inkscape"
   xmlns:sodipodi="http://sodipodi.sourceforge.net/DTD/sodipodi-0.dtd"
   xmlns:xlink="http://www.w3.org/1999/xlink"
   xmlns="http://www.w3.org/2000/svg"
   xmlns:svg="http://www.w3.org/2000/svg">
  <defs
     id="defs45196">
    <linearGradient
       inkscape:collect="always"
       id="linearGradient45571">
      <stop
         style="stop-color:#6173b7;stop-opacity:1;"
         offset="0"
         id="stop45567" />
      <stop
         style="stop-color:#3895be;stop-opacity:1;"
         offset="1"
         id="stop45569" />
    </linearGradient>
    <linearGradient
       inkscape:collect="always"
       xlink:href="#linearGradient45571"
       id="linearGradient45573"
       x1="6"
       y1="137.56001"
       x2="269"
       y2="137.56001"
       gradientUnits="userSpaceOnUse" />
  </defs>
  <sodipodi:namedview
     id="namedview45194"
     pagecolor="#ffffff"
     bordercolor="#000000"
     borderopacity="0.25"
     inkscape:showpageshadow="2"
     inkscape:pageopacity="0.0"
     inkscape:pagecheckerboard="0"
     inkscape:deskcolor="#d1d1d1"
     showgrid="false"
     inkscape:zoom="2.9309091"
     inkscape:cx="133.40571"
     inkscape:cy="137.5"
     inkscape:window-width="1920"
     inkscape:window-height="1009"
     inkscape:window-x="-8"
     inkscape:window-y="-8"
     inkscape:window-maximized="1"
     inkscape:current-layer="g45198" />
  <g
     inkscape:groupmode="layer"
     inkscape:label="Image"
     id="g45198">
    <path
       style="fill:url(#linearGradient45573);fill-opacity:1"
       d="M 74.805818,224.95479 C 40.494538,218.9111 21.120409,208.96307 9.8364641,191.59496 6.1368261,185.90053 6,185.38068 6,177.01903 6,167.944 7.8529263,152.64615 10.487529,139.96977 20.467819,91.949664 43.033617,64.947065 83,53.200171 c 17.35627,-5.101343 20.04145,-5.432315 40.5,-4.991973 18.77478,0.4041 19.12213,0.451725 29.30257,4.017641 14.14778,4.95556 23.06664,10.512873 33.35334,20.78238 l 8.65591,8.641437 8.84409,-1.808026 c 27.87427,-5.698427 52.7392,3.253192 62.32594,22.43795 2.73656,5.47635 3.01815,6.94715 3.01815,15.76435 0,9.32627 -0.16152,10.04658 -3.9444,17.59027 -6.20676,12.3773 -18.17194,24.18513 -30.39672,29.997 l -3.84112,1.82613 0.34112,8.68657 c 0.41478,10.5623 -0.24721,11.69383 -12.38476,21.16919 -18.98726,14.82269 -38.66508,22.81022 -69.27412,28.11945 -13.67683,2.37228 -60.203407,2.07469 -74.694182,-0.47775 z m 70.219592,-7.44245 c 25.95721,-3.34181 48.89773,-11.94005 66.21433,-24.81752 11.5475,-8.58728 11.3956,-8.28099 7.69375,-15.51385 -6.64591,-12.98508 -20.22341,-20.7735 -45.51471,-26.10849 -7.65681,-1.61515 -28.42975,-4.24243 -29.01964,-3.67031 -0.0555,0.0538 -4.92785,9.54783 -10.82749,21.09783 -11.04923,21.63158 -13.48456,25.5 -16.05325,25.5 -0.94362,0 -1.40698,0.80695 -1.25661,2.18839 0.34025,3.12585 -3.50159,4.7731 -11.26179,4.82867 -4.10278,0.0294 -7.215895,0.58802 -8.44113,1.51474 -3.558043,2.69117 -14.953099,1.06081 -21.201749,-3.03346 l -2.546105,-1.66827 2.087492,-2.22204 c 1.54715,-1.64686 1.796086,-2.51344 0.961709,-3.34781 -1.967325,-1.96733 -0.08661,-4.17442 4.552519,-5.34256 4.178294,-1.05211 4.456,-1.32398 3.947829,-3.86484 -0.465269,-2.32634 -0.09855,-2.91871 2.463994,-3.98015 2.806379,-1.16244 2.939802,-1.45018 1.966757,-4.24146 -0.939304,-2.69449 -0.377664,-4.35038 5.607266,-16.53197 l 6.651128,-13.53756 -6.774856,0.68889 c -24.703303,2.51193 -52.572353,12.55136 -71.246048,25.66538 -8.201133,5.75943 -9.68351,8.38136 -7.582111,13.41072 1.997818,4.78145 9.958237,13.07794 16.851206,17.56262 22.465902,14.61671 69.260959,21.01908 112.727509,15.42305 z m -14.13414,-62.40203 14.06565,-27.88968 -4.72846,-0.70548 c -6.23732,-0.9306 -11.11171,-3.03051 -14.44446,-6.22272 l -2.71601,-2.60147 -0.92059,2.40452 c -0.50632,1.32249 -6.37162,13.6117 -13.03399,27.30937 C 102.45103,161.10252 97,172.83658 97,173.48054 c 0,3.23391 11.11093,9.36638 17.16281,9.47269 2.49435,0.0438 3.55267,-1.71765 16.72846,-27.84292 z M 22.750932,161.27554 C 44.01266,147.75876 78.149744,137 99.776147,137 h 4.912363 l 11.82838,-24.75 c 6.50561,-13.6125 15.08913,-31.358054 19.07448,-39.434564 l 7.24611,-14.684563 -4.96796,-1.065437 c -2.73238,-0.58599 -10.68331,-1.060709 -17.66874,-1.054931 -31.96475,0.02644 -60.683758,11.732891 -77.695137,31.670122 -6.916992,8.106672 -15.930826,25.102623 -19.405169,36.589233 -4.03814,13.35059 -8.733334,42.22008 -6.665019,40.9814 0.5855,-0.35064 3.427465,-2.13972 6.315477,-3.97572 z m 209.221118,-3.81526 c 6.89409,-3.56066 10.4681,-6.24406 15.81854,-11.87668 9.01274,-9.48807 12.57058,-16.67678 13.06343,-26.39502 0.466,-9.18902 -1.44016,-14.55027 -7.32676,-20.607141 -5.61426,-5.77665 -12.2559,-9.060327 -22.54071,-11.144296 -9.50592,-1.926146 -15.29779,-1.590073 -30.39703,1.763787 l -9.91047,2.201327 -1.58135,-2.451128 c -0.86974,-1.348121 -3.45342,-4.461379 -5.7415,-6.918351 l -4.16016,-4.467221 -5.43172,10.967221 c -2.98744,6.031972 -9.91807,19.868202 -15.40139,30.747192 -5.48332,10.87898 -9.75815,19.99148 -9.49963,20.25 0.25852,0.25851 2.75753,0.47174 5.55337,0.47384 19.72466,0.0148 50.902,10.3866 62.64218,20.83931 3.40086,3.0279 4.62452,3.63355 5.22398,2.58562 0.43056,-0.75268 4.79071,-3.43848 9.68922,-5.96846 z M 213.59785,143.455 c -0.84975,-0.84975 -2.03778,-3.43725 -2.64006,-5.75 -0.60229,-2.31275 -2.41418,-8.67113 -4.02643,-14.12972 -4.80193,-16.25794 -3.50505,-22.26662 5.31874,-24.642624 7.01133,-1.887957 18.85068,1.209354 24.59491,6.434314 8.72879,7.93972 6.68483,25.29324 -3.9734,33.73471 -6.91346,5.47557 -16.08088,7.54619 -19.27376,4.35332 z m 10.87258,-8.73668 c 9.8367,-5.57133 12.91576,-20.08032 5.25062,-24.74176 -4.52744,-2.7533 -13.07778,-4.39119 -15.67297,-3.00229 -2.62967,1.40736 -2.5777,3.11829 0.35684,11.74619 1.32271,3.88893 2.96932,9.59275 3.65913,12.67516 0.68982,3.08241 1.5201,5.59698 1.84508,5.58793 0.32498,-0.009 2.37756,-1.0284 4.5613,-2.26523 z"
       id="path45565" />
  </g>
</svg>
