<?xml version="1.0" encoding="UTF-8" standalone="no"?>
<!-- Created with Inkscape (http://www.inkscape.org/) -->

<svg
   version="1.1"
   id="svg52524"
   width="275"
   height="275"
   viewBox="0 0 275 275"
   sodipodi:docname="During_Day_Workouts.svg"
   inkscape:version="1.2.1 (9c6d41e410, 2022-07-14)"
   xmlns:inkscape="http://www.inkscape.org/namespaces/inkscape"
   xmlns:sodipodi="http://sodipodi.sourceforge.net/DTD/sodipodi-0.dtd"
   xmlns:xlink="http://www.w3.org/1999/xlink"
   xmlns="http://www.w3.org/2000/svg"
   xmlns:svg="http://www.w3.org/2000/svg">
  <defs
     id="defs52528">
    <linearGradient
       inkscape:collect="always"
       id="linearGradient52903">
      <stop
         style="stop-color:#6173b7;stop-opacity:1;"
         offset="0"
         id="stop52899" />
      <stop
         style="stop-color:#3895be;stop-opacity:1;"
         offset="1"
         id="stop52901" />
    </linearGradient>
    <linearGradient
       inkscape:collect="always"
       xlink:href="#linearGradient52903"
       id="linearGradient52905"
       x1="2"
       y1="137.99736"
       x2="274"
       y2="137.99736"
       gradientUnits="userSpaceOnUse" />
  </defs>
  <sodipodi:namedview
     id="namedview52526"
     pagecolor="#ffffff"
     bordercolor="#000000"
     borderopacity="0.25"
     inkscape:showpageshadow="2"
     inkscape:pageopacity="0.0"
     inkscape:pagecheckerboard="0"
     inkscape:deskcolor="#d1d1d1"
     showgrid="false"
     inkscape:zoom="2.9309091"
     inkscape:cx="137.5"
     inkscape:cy="137.5"
     inkscape:window-width="1920"
     inkscape:window-height="1009"
     inkscape:window-x="-8"
     inkscape:window-y="-8"
     inkscape:window-maximized="1"
     inkscape:current-layer="g52530" />
  <g
     inkscape:groupmode="layer"
     inkscape:label="Image"
     id="g52530">
    <path
       style="fill:url(#linearGradient52905);fill-opacity:1"
       d="M 48.123751,232.42237 C 32.296578,228.16548 16.664597,215.12032 9.2720867,200 3.7747324,188.75595 2,181.31251 2,169.5 2,157.86656 3.7656827,150.31459 9.0141268,139.5 13.767177,129.70619 20.160339,121.49774 27.758193,115.43371 34.275339,110.23223 65.453356,94.483475 77.5,90.307955 c 7.2486,-2.512457 9.31495,-2.774538 22,-2.790324 12.99927,-0.01618 14.46116,0.176652 20.45151,2.697627 3.54834,1.493277 6.4992,2.618229 6.55748,2.499895 0.0583,-0.118334 1.55196,-3.214403 3.3193,-6.880153 3.86099,-8.00832 10.47556,-15.608881 18.07364,-20.767744 8.62911,-5.858902 27.18819,-14.813816 38.96433,-18.80062 9.20473,-3.116257 12.23134,-3.662064 22.52202,-4.061526 14.03669,-0.544874 20.09816,0.550878 30.61172,5.533784 9.23284,4.375907 20.94397,15.661182 25.72337,24.787992 C 271.13955,82.869693 274,94.682875 274,106.70796 c 0,25.82774 -11.78543,42.88614 -38.17262,55.2516 -11.87314,5.56393 -29.05545,11.78532 -37.82738,13.69656 -8.19687,1.78595 -27.29746,2.08874 -35.11597,0.55668 l -4.61597,-0.90451 -1.66341,5.27697 c -2.29994,7.29624 -10.83759,18.80952 -18.60465,25.08892 -11.24875,9.09423 -39.321114,22.36082 -56,26.46478 -9.131401,2.24685 -26.049922,2.38839 -33.876249,0.28341 z m 30.381626,-7.96579 c 23.844933,-6.21081 42.622723,-27.90273 46.470983,-53.68282 2.57428,-17.24551 -2.81607,-32.7818 -15.48574,-44.63365 C 97.6616,115.07464 81.864962,109.38563 65.5,110.2973 c -11.070282,0.61671 -16.572528,2.43018 -27.471128,9.05412 -12.698631,7.71797 -21.438413,19.86298 -25.458804,35.37818 -2.002917,7.72951 -2.015814,22.13887 -0.02665,29.77578 6.374547,24.47353 27.388984,41.39592 51.496485,41.4688 4.696946,0.0142 11.20641,-0.66872 14.465476,-1.5176 z M 63.654988,213.17126 c -2.535683,-2.8019 -2.399841,-21.1872 0.173753,-23.51627 2.283113,-2.06619 3.597586,-2.08581 5.59983,-0.0836 2.275007,2.27501 2.275007,21.58213 0,23.85714 -2.060276,2.06028 -3.744108,1.98523 -5.773583,-0.25731 z M 51.970063,166.92791 c -11.505899,-10.56407 -13.235762,-13.64498 -8.949396,-15.93897 2.516394,-1.34673 2.707046,-1.23032 12.593965,7.68987 4.463047,4.02665 8.348626,7.32119 8.63462,7.32119 0.285994,0 7.592799,-8.325 16.237345,-18.5 11.873389,-13.97549 16.273891,-18.5 17.992935,-18.5 2.641708,0 4.832758,2.22923 4.353048,4.4289 C 102.19055,136.37281 66.729358,177 64.80181,177 63.777883,177 58.003597,172.46756 51.970063,166.92791 Z M 18.2,171.8 c -1.83712,-1.83712 -1.42786,-5.60769 0.734259,-6.76482 2.509541,-1.34306 17.621941,-1.34306 20.131482,0 2.162119,1.15713 2.571379,4.9277 0.734259,6.76482 -0.766667,0.76667 -4.666667,1.2 -10.8,1.2 -6.133333,0 -10.033333,-0.43333 -10.8,-1.2 z m 71.371429,-0.37143 c -2.060277,-2.06027 -1.985233,-3.74411 0.257312,-5.77358 2.780598,-2.51641 19.201719,-2.3838 21.516269,0.17375 4.45054,4.91779 0.92863,7.17126 -11.20784,7.17126 -6.843315,0 -9.370121,-0.37581 -10.565741,-1.57143 z M 63.2,141.8 c -1.645642,-1.64564 -1.645642,-21.95436 0,-23.6 0.66,-0.66 2.145,-1.2 3.3,-1.2 3.855663,0 4.5,1.86142 4.5,13 0,11.13858 -0.644337,13 -4.5,13 -1.155,0 -2.64,-0.54 -3.3,-1.2 z m 64.14691,61.17402 C 144.81926,191.2878 152,177.42561 152,155.38203 c 0,-26.23706 -14.35526,-49.55035 -35.04269,-56.910216 -10.4119,-3.704187 -25.693671,-3.52805 -37.054922,0.427092 -5.896113,2.052584 -5.693808,2.263804 3.999899,4.176054 6.206836,1.22441 18.477363,6.62794 24.596803,10.83163 5.91402,4.06257 15.38968,14.40752 18.44149,20.13331 10.75258,20.17391 8.75857,47.55556 -4.96727,68.2101 -2.10161,3.1625 -3.44306,5.75 -2.98099,5.75 0.46207,0 4.22164,-2.26169 8.35459,-5.02598 z M 193.345,167.56101 c 11.18495,-2.14004 18.05217,-5.79951 26.23707,-13.98148 16.37704,-16.37117 22.49436,-40.8778 14.92416,-59.787803 C 227.19558,75.530032 210.2681,64.300572 188.5,63.271807 164.36758,62.131305 143.93435,73.309972 136.43816,91.75393 l -2.28038,5.610749 6.80041,6.800411 6.80041,6.80041 16.0008,-6.98275 C 172.55984,100.14224 181.18209,97 182.91994,97 c 1.73786,0 4.95946,0.918152 7.15913,2.040337 9.35284,4.771463 10.65263,16.284463 2.67913,23.730673 -1.33751,1.24906 -9.36343,5.33095 -17.83538,9.07087 l -15.40354,6.79985 0.49036,3.92913 c 0.2697,2.16103 0.49036,8.52371 0.49036,14.13928 v 10.21015 l 5.5,0.61637 c 3.025,0.33901 5.95,0.77142 6.5,0.96091 2.55304,0.87961 14.05329,0.36291 20.845,-0.93656 z m 44.93636,-16.2782 c 15.61971,-8.20792 24.71243,-20.76436 26.63621,-36.78281 1.07326,-8.93654 0.0641,-19.977189 -2.5592,-28 C 256.36476,68.170111 241.83238,54.607421 224.26258,50.946205 217.37385,49.510723 201.53924,50.269569 195,52.348563 c -4.98605,1.585193 -5.54177,1.263321 6.29972,3.648776 20.14051,4.057284 38.39059,21.860419 43.16284,42.105774 3.8861,16.486057 -0.55095,37.537567 -10.96796,52.037287 -1.9202,2.67278 -3.22033,4.8596 -2.88917,4.8596 0.33116,0 3.78532,-1.67274 7.67593,-3.71719 z M 187.25,116.22209 c 2.4337,-2.13062 2.31905,-7.84718 -0.18426,-9.18691 -3.38883,-1.81364 -5.94834,-1.16972 -20.41136,5.1351 -7.78491,3.39366 -14.26356,6.24033 -14.397,6.32596 -0.13344,0.0856 0.95135,2.85713 2.41065,6.15892 l 2.65327,6.00325 14.08935,-6.45213 c 7.74914,-3.54867 14.87685,-7.14156 15.83935,-7.98419 z"
       id="path52897" />
  </g>
</svg>
