<?xml version="1.0" encoding="UTF-8" standalone="no"?>
<!-- Created with Inkscape (http://www.inkscape.org/) -->

<svg
   version="1.1"
   id="svg21945"
   width="275"
   height="275"
   viewBox="0 0 275 275"
   sodipodi:docname="WindingDown_Relax.svg"
   inkscape:version="1.2.1 (9c6d41e410, 2022-07-14)"
   xmlns:inkscape="http://www.inkscape.org/namespaces/inkscape"
   xmlns:sodipodi="http://sodipodi.sourceforge.net/DTD/sodipodi-0.dtd"
   xmlns:xlink="http://www.w3.org/1999/xlink"
   xmlns="http://www.w3.org/2000/svg"
   xmlns:svg="http://www.w3.org/2000/svg">
  <defs
     id="defs21949">
    <linearGradient
       inkscape:collect="always"
       id="linearGradient22464">
      <stop
         style="stop-color:#6173b7;stop-opacity:1;"
         offset="0"
         id="stop22460" />
      <stop
         style="stop-color:#4c84ba;stop-opacity:1;"
         offset="0.5"
         id="stop24283" />
      <stop
         style="stop-color:#428cbc;stop-opacity:1;"
         offset="0.75"
         id="stop24285" />
      <stop
         style="stop-color:#3d90bd;stop-opacity:1;"
         offset="0.875"
         id="stop24287" />
      <stop
         style="stop-color:#3895be;stop-opacity:1;"
         offset="1"
         id="stop22462" />
    </linearGradient>
    <linearGradient
       inkscape:collect="always"
       xlink:href="#linearGradient22464"
       id="linearGradient22466"
       x1="19.126109"
       y1="138.21769"
       x2="256.87348"
       y2="138.21769"
       gradientUnits="userSpaceOnUse" />
  </defs>
  <sodipodi:namedview
     id="namedview21947"
     pagecolor="#ffffff"
     bordercolor="#000000"
     borderopacity="0.25"
     inkscape:showpageshadow="2"
     inkscape:pageopacity="0.0"
     inkscape:pagecheckerboard="0"
     inkscape:deskcolor="#d1d1d1"
     showgrid="false"
     inkscape:zoom="3.0145455"
     inkscape:cx="126.55308"
     inkscape:cy="137.33414"
     inkscape:window-width="1920"
     inkscape:window-height="1009"
     inkscape:window-x="-8"
     inkscape:window-y="-8"
     inkscape:window-maximized="1"
     inkscape:current-layer="g21951" />
  <g
     inkscape:groupmode="layer"
     inkscape:label="Image"
     id="g21951">
    <path
       style="fill:url(#linearGradient22466);fill-opacity:1"
       d="M 118,251.8208 C 107.825,248.53761 90.275,242.91739 79,239.33142 48.354529,229.58476 21.006048,218.0641 19.558315,214.29137 c -0.733607,-1.91175 1.251867,-24.09282 2.40873,-26.90956 0.531927,-1.29513 5.272957,-4.45333 12.201458,-8.12788 22.909968,-12.15037 27.951116,-15.89387 26.499057,-19.67787 -0.446894,-1.16459 -2.138379,-0.7702 -8.859952,2.06579 -8.573833,3.61751 -22.253237,7.33884 -27.022424,7.35114 -3.348193,0.009 -5.350274,-3.06859 -3.836599,-5.89692 0.712162,-1.33069 2.604531,-2.11066 6.285184,-2.59055 10.534798,-1.37353 37.113604,-12.05485 43.050441,-17.30083 1.69171,-1.49485 1.643484,-1.63411 -0.930203,-2.6861 -2.172475,-0.888 -4.325571,-0.68013 -10.784211,1.04113 -4.438388,1.18285 -13.794163,3.40681 -20.790612,4.94213 C 24.375355,149.44321 22,149.21713 22,145 c 0,-2.81662 1.723269,-3.54414 16.5,-6.9659 31.261028,-7.23892 38.5,-9.71898 38.5,-13.19005 0,-0.42552 -0.995992,-1.30672 -2.213315,-1.95821 -2.487878,-1.33147 -28.702346,-0.65822 -44.155052,1.13401 -9.925933,1.15123 -11.946193,0.46226 -11.432191,-3.89869 0.387917,-3.29121 2.296476,-3.69266 25.050558,-5.26919 9.7625,-0.6764 17.75,-1.5397 17.75,-1.91845 0,-2.0437 -4.564603,-3.35496 -20.417865,-5.86535 -9.638145,-1.52622 -18.212003,-3.34602 -19.053018,-4.044 -1.716994,-1.42498 -2.062515,-16.108918 -0.8672,-36.854229 0.609377,-10.576053 0.816092,-11.437038 3.106197,-12.937573 2.332053,-1.52802 3.17731,-1.368756 17.092631,3.220599 8.05159,2.655462 15.126016,5.008951 15.720946,5.229975 0.59493,0.221025 2.822659,-2.429718 4.950508,-5.890539 C 72.883353,38.956856 90.112473,26.793706 112.0005,20.869524 119.22929,18.912991 122.96681,18.565072 137,18.542366 c 15.96841,-0.02584 16.78123,0.07369 25.22929,3.089201 17.49773,6.245766 33.3065,18.568375 43.15946,33.641902 l 4.88875,7.479041 9.61125,-3.923694 c 5.28619,-2.158032 13.35961,-5.252346 17.94093,-6.876255 16.09952,-5.70668 15.99144,-5.855638 16.77917,23.125859 0.49209,18.104707 0.34775,22.74287 -0.74971,24.090342 -0.98163,1.205248 -6.08103,2.407868 -18.35914,4.329748 -15.91365,2.49093 -21.5,4.18621 -21.5,6.52454 0,0.54391 3.13731,0.97695 7.07791,0.97695 10.00864,0 30.98349,1.89471 33.7377,3.0476 1.7626,0.73782 2.24023,1.62403 2,3.71085 -0.3657,3.17663 2.76727,3.02087 -34.53923,1.71714 -20.58372,-0.71933 -22.27272,-0.6487 -22.88895,0.95716 -1.41183,3.67919 2.61036,5.45886 25.06028,11.08825 12.01759,3.01345 22.63329,5.479 23.59044,5.479 3.02612,0 6.29659,3.36997 5.55082,5.71969 -0.88509,2.78867 -2.5776,3.30923 -7.22142,2.22104 -2.12715,-0.49845 -11.34612,-2.68731 -20.4866,-4.86413 C 209.66561,136.21489 205,135.87303 205,138.54659 c 0,3.30488 27.65674,15.53642 40.73929,18.01745 9.54846,1.81081 12.61041,4.67676 8.2555,7.72705 -3.41083,2.38904 -17.70034,-0.7261 -31.92162,-6.95898 -6.13493,-2.6888 -8.1641,-2.02186 -6.2995,2.0705 1.22582,2.69037 12.42079,9.6658 28.3085,17.63863 11.25219,5.64661 10.39226,4.09643 11.86135,21.38228 0.78119,9.19189 0.73192,12.2685 -0.21509,13.42935 -1.74812,2.14286 -26.63488,13.90614 -43.72843,20.66921 -24.26912,9.60208 -69.79762,25.48443 -72.73461,25.37304 C 137.74443,257.83743 128.175,255.10399 118,251.8208 Z m 17,-75.66035 V 103.32089 L 120.25,96.220964 C 112.1375,92.316005 98.3,86.211614 89.5,82.65565 70.602459,75.019405 30.935162,60.731504 30.325341,61.341326 29.615896,62.050771 28.64061,97 29.330258,97 31.595502,97 57.14156,101.31577 60,102.18137 c 4.516621,1.36774 8.734301,5.33242 9.530868,8.95917 0.482761,2.198 1.195404,2.85946 3.080706,2.85946 10.446478,0 15.551651,10.43509 9.112145,18.62543 -1.579954,2.00953 -2.227286,4.19774 -2.236041,7.55862 -0.01044,4.00789 -0.52682,5.26112 -3.381286,8.20618 -1.85293,1.91174 -4.6228,3.99525 -6.155266,4.63001 -2.571985,1.06536 -2.705697,1.38535 -1.738373,4.16022 1.620643,4.64898 -0.452518,9.98723 -5.632031,14.5021 -2.408673,2.09959 -10.889547,7.32627 -18.846386,11.61484 l -14.466981,7.7974 -0.624986,5.2026 c -0.343741,2.86143 -0.628896,7.33252 -0.633677,9.93575 -0.0085,4.64578 0.079,4.77747 4.741308,7.13354 10.521792,5.31711 34.408051,13.9785 64.75,23.47896 17.6,5.5108 33.125,10.47142 34.5,11.0236 1.375,0.55219 2.6125,1.0325 2.75,1.06736 0.1375,0.0349 0.25,-32.71441 0.25,-72.77616 z m 37.63209,62.50098 c 31.93363,-11.4365 51.87052,-19.46261 66.6328,-26.82474 8.58392,-4.2809 9.70867,-5.13998 9.30007,-7.10328 C 248.3093,203.50504 247.82223,199.125 247.48257,195 l -0.61757,-7.5 -11.44346,-5.98933 C 211.79112,169.14288 205.49134,163.10421 207.6769,154.916 l 1.01634,-3.80774 -4.89224,-3.04118 c -5.85321,-3.63856 -8.66044,-8.92797 -7.03357,-13.25274 0.7789,-2.0706 0.69283,-2.80748 -0.37581,-3.21756 -0.76235,-0.29254 -2.36155,-2.53968 -3.55378,-4.99366 -1.74979,-3.60158 -1.98509,-5.09848 -1.22054,-7.76433 1.15024,-4.01063 6.43011,-7.83879 10.81142,-7.83879 2.7887,0 3.29438,-0.46699 4.60211,-4.25 2.1117,-6.10872 6.48305,-7.996389 25.08898,-10.834131 l 15.15821,-2.311903 -0.52096,-17.350601 c -0.28653,-9.54283 -0.80078,-17.63042 -1.14278,-17.972422 C 243.92462,56.591286 202.29956,74.413311 172,89.799347 158.525,96.641916 146.49101,102.7488 145.2578,103.37019 l -2.2422,1.12981 -0.008,72.25 c -0.004,39.7375 0.16414,72.25 0.37429,72.25 0.21015,0 13.37265,-4.65236 29.25,-10.33857 z M 159.5,87.097887 c 9.9,-5.171162 18.14389,-9.515055 18.31976,-9.653095 0.90826,-0.712891 -4.51091,-9.188578 -8.29344,-12.971108 C 161.60627,56.553642 151.37733,53 136.5,53 120.24729,53 108.82112,57.581827 98.101512,68.397578 l -6.25048,6.306536 12.324488,5.277687 c 6.77846,2.902728 17.49948,7.90169 23.82448,11.108805 6.325,3.207115 11.95,5.73623 12.5,5.620256 0.55,-0.115974 9.1,-4.441813 19,-9.612975 z"
       id="path21955" />
  </g>
</svg>
