<?xml version="1.0" encoding="UTF-8" standalone="no"?>
<!-- Created with Inkscape (http://www.inkscape.org/) -->

<svg
   version="1.1"
   id="svg48858"
   width="275"
   height="275"
   viewBox="0 0 275 275"
   sodipodi:docname="During_Day_Sunlight.svg"
   inkscape:version="1.2.1 (9c6d41e410, 2022-07-14)"
   xmlns:inkscape="http://www.inkscape.org/namespaces/inkscape"
   xmlns:sodipodi="http://sodipodi.sourceforge.net/DTD/sodipodi-0.dtd"
   xmlns:xlink="http://www.w3.org/1999/xlink"
   xmlns="http://www.w3.org/2000/svg"
   xmlns:svg="http://www.w3.org/2000/svg">
  <defs
     id="defs48862">
    <linearGradient
       inkscape:collect="always"
       id="linearGradient49237">
      <stop
         style="stop-color:#6173b7;stop-opacity:1;"
         offset="0"
         id="stop49233" />
      <stop
         style="stop-color:#3895be;stop-opacity:1;"
         offset="1"
         id="stop49235" />
    </linearGradient>
    <linearGradient
       inkscape:collect="always"
       xlink:href="#linearGradient49237"
       id="linearGradient49239"
       x1="0.5"
       y1="137.55263"
       x2="274.87369"
       y2="137.55263"
       gradientUnits="userSpaceOnUse" />
  </defs>
  <sodipodi:namedview
     id="namedview48860"
     pagecolor="#ffffff"
     bordercolor="#000000"
     borderopacity="0.25"
     inkscape:showpageshadow="2"
     inkscape:pageopacity="0.0"
     inkscape:pagecheckerboard="0"
     inkscape:deskcolor="#d1d1d1"
     showgrid="false"
     inkscape:zoom="2.9309091"
     inkscape:cx="137.5"
     inkscape:cy="137.5"
     inkscape:window-width="1920"
     inkscape:window-height="1009"
     inkscape:window-x="-8"
     inkscape:window-y="-8"
     inkscape:window-maximized="1"
     inkscape:current-layer="g48864" />
  <g
     inkscape:groupmode="layer"
     inkscape:label="Image"
     id="g48864">
    <path
       style="fill:url(#linearGradient49239);fill-opacity:1"
       d="m 125.90394,267.82051 c -1.42134,-2.6558 -0.30947,-29.62695 1.30136,-31.56789 0.57178,-0.68894 1.79449,-1.25262 2.71714,-1.25262 3.60891,0 4.07756,2.01133 4.07756,17.5 0,10.41111 -0.37263,15.47263 -1.2,16.3 -1.93212,1.93212 -5.61799,1.4086 -6.89606,-0.97949 z m 94.03329,-40.42749 C 209.09375,216.70761 207.44097,213.95903 210.2,211.2 c 0.66,-0.66 1.92239,-1.2 2.80532,-1.2 0.88292,0 6.70315,5.16695 12.93385,11.48211 10.95953,11.10812 11.27956,11.55599 9.8252,13.75 -2.77937,4.1929 -4.4638,3.35861 -15.82714,-7.83909 z m -184.891549,2.16202 c -2.241329,-2.70063 -0.55816,-5.26429 10.167091,-15.48563 9.044635,-8.61968 11.146785,-10.15961 13.5,-9.88942 2.373949,0.27256 2.787228,0.77459 2.787228,3.38577 0,2.59612 -1.640409,4.62584 -10.70858,13.25 -10.561602,10.04446 -13.36925,11.60278 -15.745739,8.73928 z M 117,227.12854 C 62.49308,215.19462 30.434259,162.1298 46.653282,110.68833 50.100465,99.754991 53.687398,92.865046 60.949489,83.227523 77.499394,61.264141 102.7321,48.081567 131.57436,46.330267 c 36.19476,-2.197744 71.4583,16.826728 88.81425,47.914773 7.70915,13.80865 12.43473,34.77071 11.10379,49.25496 -3.64822,39.70257 -29.26538,70.61619 -67.9924,82.05013 -12.31661,3.63641 -33.77367,4.36475 -46.5,1.57841 z m 15.71886,-11.36975 c 0.62263,-2.33267 0.98636,-4.3869 0.8083,-4.56497 -0.17806,-0.17806 -3.01737,-0.95212 -6.30956,-1.72014 -14.48963,-3.3802 -25.20125,-11.11657 -30.329846,-21.90547 -3.787732,-7.96815 -4.398262,-13.10007 -2.929553,-24.62486 1.421713,-11.15603 1.291245,-11.59672 -5.756329,-19.44335 -5.775022,-6.4298 -7.584288,-10.7068 -6.746358,-15.94799 1.046295,-6.54452 4.915976,-11.90186 12.981537,-17.97218 4.109557,-3.09294 7.765409,-6.0984 8.124109,-6.6788 0.35871,-0.58039 1.28647,-3.833061 2.06169,-7.228147 C 107.16922,84.521021 109.30596,81.75 115.3588,81.75 c 2.86432,0 2.55838,0.579056 7.71856,-14.608789 l 3.85923,-11.35879 -4.64914,0.697182 C 105.23281,59.037104 85.31991,69.645169 73.715514,82.355003 59.098481,98.364458 52,116.39054 52,137.5 c 0,18.56772 5.371786,34.47659 16.599465,49.16035 12.564732,16.43238 33.354515,28.88222 53.900535,32.27802 8.96693,1.48204 8.9753,1.47943 10.21886,-3.17958 z M 139.59813,197.75 c 1.04603,-2.3375 4.55864,-8.3 7.80581,-13.25 11.0882,-16.90292 11.76168,-20.64594 5.84606,-32.49114 -3.27448,-6.5567 -3.75,-8.40774 -3.75,-14.59759 0,-6.25853 0.38063,-7.70099 3.25,-12.31645 1.7875,-2.87524 3.25,-5.54597 3.25,-5.93496 0,-0.90517 -33.88826,-9.34695 -34.93212,-8.70181 -0.43019,0.26587 -1.37925,3.30908 -2.10902,6.76268 C 117.28617,125.13668 113.85591,129 108.5,129 c -4.50286,0 -9.5,-4.45522 -9.5,-8.46976 0,-2.60968 -0.0132,-2.61407 -2.485467,-0.82692 -1.367006,0.98817 -3.420603,3.68533 -4.563549,5.99368 -2.442622,4.93324 -2.155851,5.75368 4.715293,13.49022 C 102.0696,145.27107 104,149.43833 104,155.01891 c 0,3.71403 0.31349,4.21413 3.46788,5.53212 1.90734,0.79693 5.18221,1.44897 7.2775,1.44897 7.25157,0 10.83555,5.2628 5.82136,8.54823 -2.70462,1.77213 -9.43302,1.27999 -15.31674,-1.12032 L 102,168.10205 v 3.33414 c 0,13.2346 10.32602,24.65261 26,28.74953 9.19878,2.4044 9.45638,2.3503 11.59813,-2.43572 z M 160.702,106.55109 c -1.06173,-6.54271 -4.12515,-11.085246 -14.38947,-21.337208 -5.66419,-5.657364 -11.02455,-11.69009 -11.91191,-13.406058 l -1.61338,-3.11994 -3.47254,8.906058 C 127.4048,82.492274 125.4686,88.525 125.01203,91 c -0.45657,2.475 -1.1293,5.675581 -1.49495,7.112403 l -0.66483,2.612407 17.82388,4.54386 c 9.80313,2.49913 18.44525,4.58605 19.20471,4.6376 1.02486,0.0696 1.23656,-0.79542 0.82116,-3.35518 z m 79.52117,34.27208 c -1.55685,-1.55685 -1.56724,-4.0791 -0.0232,-5.62317 1.40535,-1.40535 31.46783,-1.69693 33.63008,-0.32618 0.75546,0.47892 1.18747,2.09236 1,3.73469 L 274.5,141.5 l -16.52683,0.27317 c -12.00938,0.1985 -16.86118,-0.0612 -17.75,-0.95 z M 13,139.0473 0.5,138.5 v -3.5 -3.5 l 16.608023,-0.27354 c 18.076798,-0.29772 19.762173,0.17027 18.514583,5.14106 -0.629639,2.50868 -3.371722,3.73757 -7.622606,3.41613 -1.375,-0.10398 -8.125,-0.43533 -15,-0.73635 z M 47.364569,56.823193 C 36.224068,45.831706 34.783099,43.616901 37.2,41.2 c 2.712623,-2.712623 5.467451,-1.066243 16.155588,9.655139 11.496031,11.531788 12.872645,14.424457 7.758981,16.30389 -2.137179,0.785481 -3.568141,-0.290169 -13.75,-10.335836 z M 211.2,64.8 c -2.85512,-2.855119 -1.18942,-5.535895 9.77499,-15.731863 9.19833,-8.553663 11.42422,-10.154194 13.75,-9.886972 2.14741,0.246726 2.84369,0.910874 3.07867,2.936589 0.25525,2.200388 -1.49716,4.312919 -10.99127,13.25 C 220.60018,61.215489 214.81603,66 213.95873,66 213.10143,66 211.86,65.46 211.2,64.8 Z M 130.57143,38.428571 c -1.25116,-1.251155 -1.55632,-3.849734 -1.49731,-12.75 0.0408,-6.148214 0.37827,-13.203571 0.75,-15.678571 0.6053,-4.0300987 0.97782,-4.5344673 3.56737,-4.8300758 1.64233,-0.1874789 3.25577,0.2445338 3.73469,1 1.21502,1.9165989 1.07504,29.5855818 -0.16136,31.8958168 -1.25125,2.337967 -4.24818,2.508045 -6.39339,0.36283 z"
       id="path49231" />
  </g>
</svg>
