<?xml version="1.0" encoding="UTF-8" standalone="no"?>
<!-- Created with Inkscape (http://www.inkscape.org/) -->

<svg
   version="1.1"
   id="svg41526"
   width="275"
   height="275"
   viewBox="0 0 275 275"
   sodipodi:docname="During_Day_Nap.svg"
   inkscape:version="1.2.1 (9c6d41e410, 2022-07-14)"
   xmlns:inkscape="http://www.inkscape.org/namespaces/inkscape"
   xmlns:sodipodi="http://sodipodi.sourceforge.net/DTD/sodipodi-0.dtd"
   xmlns:xlink="http://www.w3.org/1999/xlink"
   xmlns="http://www.w3.org/2000/svg"
   xmlns:svg="http://www.w3.org/2000/svg">
  <defs
     id="defs41530">
    <linearGradient
       inkscape:collect="always"
       id="linearGradient41905">
      <stop
         style="stop-color:#6173b7;stop-opacity:1;"
         offset="0"
         id="stop41901" />
      <stop
         style="stop-color:#3895be;stop-opacity:1;"
         offset="1"
         id="stop41903" />
    </linearGradient>
    <linearGradient
       inkscape:collect="always"
       xlink:href="#linearGradient41905"
       id="linearGradient41907"
       x1="7.1233226"
       y1="138.03367"
       x2="268.85009"
       y2="138.03367"
       gradientUnits="userSpaceOnUse" />
  </defs>
  <sodipodi:namedview
     id="namedview41528"
     pagecolor="#ffffff"
     bordercolor="#000000"
     borderopacity="0.25"
     inkscape:showpageshadow="2"
     inkscape:pageopacity="0.0"
     inkscape:pagecheckerboard="0"
     inkscape:deskcolor="#d1d1d1"
     showgrid="false"
     inkscape:zoom="2.9309091"
     inkscape:cx="137.6706"
     inkscape:cy="137.5"
     inkscape:window-width="1920"
     inkscape:window-height="1009"
     inkscape:window-x="-8"
     inkscape:window-y="-8"
     inkscape:window-maximized="1"
     inkscape:current-layer="g41532" />
  <g
     inkscape:groupmode="layer"
     inkscape:label="Image"
     id="g41532">
    <path
       style="fill:url(#linearGradient41907);fill-opacity:1"
       d="M 99.5,243.55308 C 87.063483,240.30772 80.204964,237.5784 73.34586,233.14514 66.831333,228.9346 60.081826,221.79955 57.533693,216.42976 c -1.236709,-2.60617 -2.132488,-3.37449 -3.447652,-2.95707 -3.180017,1.0093 -16.457633,-1.44965 -21.763614,-4.03051 C 24.485208,205.6301 16.826842,196.76711 13.164814,187.27116 8.0543369,174.01925 6.7408664,165.06536 7.2126374,146.69535 7.5173017,134.83222 8.3746532,126.35379 10.417721,115 c 3.914449,-21.753482 4.99672,-25.348659 8.136688,-27.029119 4.175648,-2.234739 7.244929,-1.311646 13.771468,4.1418 5.488186,4.585818 6.232298,4.935449 7.149914,3.359483 21.258345,-36.510289 49.178318,-57.190103 87.063549,-64.486375 3.86855,-0.74504 13.75318,-1.028513 27.5,-0.78865 19.72244,0.344129 22.31111,0.602778 31.96066,3.193366 12.84381,3.448142 28.97553,10.919375 37.96333,17.58231 14.31087,10.60909 28.3044,27.66752 35.53582,43.318963 6.21915,13.460552 8.71346,23.739542 9.25943,38.157922 0.93777,24.76544 -5.31412,45.23536 -19.59718,64.16505 -19.51692,25.86625 -44.80236,39.39288 -88.58629,47.38986 -8.70977,1.5908 -15.0967,1.98542 -31.5,1.94622 -18.27383,-0.0437 -21.58174,-0.31185 -29.57511,-2.39775 z m 67.5,-8.89057 c 9.075,-1.90885 19.875,-4.68371 24,-6.16634 27.70504,-9.95794 46.81152,-25.53458 58.49012,-47.68434 9.04419,-17.15329 12.14444,-30.70606 11.22564,-49.07295 -0.64699,-12.93353 -3.01799,-22.31075 -8.71861,-34.481791 C 234.31399,59.502821 201.30978,39.011614 155.37677,37.268736 139.23949,36.656424 129.44841,37.789282 115.12603,41.92587 87.96481,49.770572 64.365368,68.64002 50.332686,93.7328 c -1.959449,3.503822 -3.355714,6.57751 -3.102811,6.83041 0.252902,0.2529 4.01714,-0.0661 8.364974,-0.708926 4.347833,-0.64281 15.176016,-1.183995 24.062629,-1.202633 l 16.157477,-0.03389 2.842523,-5.969854 c 2.960452,-6.21754 6.915032,-9.637314 11.152382,-9.644171 3.31317,-0.0054 12.59948,9.081473 18.28301,17.890294 2.62388,4.06672 6.25442,11.2084 8.06786,15.8704 l 3.29717,8.47636 1.65358,-5.3704 c 5.28167,-17.15346 17.86223,-34.379761 29.72587,-40.703015 6.54136,-3.486511 9.29984,-3.911924 11.12282,-1.715365 1.81047,2.181481 0.34145,5.247191 -3.08703,6.442366 -13.89922,4.845294 -30.06231,30.178824 -33.38314,52.323714 -0.81318,5.42271 -2.25455,4.86481 19.01,7.35801 9.74498,1.14257 18.86288,1.50333 30,1.18698 14.53672,-0.41291 16.86919,-0.74004 25.504,-3.57693 11.06189,-3.63428 17.33697,-7.34958 24.04479,-14.23624 4.83229,-4.96113 7.51018,-5.99094 9.75121,-3.74991 1.98283,1.98283 1.40317,3.62427 -2.9461,8.34268 -9.22064,10.00321 -25.20624,17.75562 -42.29767,20.51277 -10.07255,1.62487 -37.39487,0.68942 -57.9959,-1.98566 -19.15108,-2.4868 -38.67581,-2.71166 -47.00803,-0.5414 C 81.030104,155.39468 62.019297,177.63826 61.697984,198.5 61.440252,215.23372 73.136629,227.46993 96,234.38519 c 13.18574,3.98815 18.19102,4.54729 37,4.13322 15.21169,-0.33487 19.65755,-0.83907 34,-3.8559 z M 53.261441,201.25 c -1.444149,-15.41598 11.376242,-39.06469 26.759996,-49.36194 4.766916,-3.19078 5.031448,-3.59167 4.542941,-6.88478 -0.285291,-1.9232 -1.316486,-4.04535 -2.291545,-4.71589 -4.691791,-3.22654 -5.000442,-3.91007 -3.000606,-6.645 0.832191,-1.13809 3.217268,-1.94062 6.895703,-2.32027 4.978965,-0.51388 5.74963,-0.34468 6.724187,1.4763 1.126206,2.10433 0.562269,5.20158 -0.947086,5.20158 -0.462546,0 -0.35729,1.38755 0.233902,3.08344 0.881864,2.52972 1.456158,2.96109 3.19798,2.4021 7.467987,-2.39663 15.629997,-3.44631 26.940477,-3.4647 14.65023,-0.0238 13.38205,1.40011 9.59724,-10.77591 -3.9815,-12.80878 -13.11092,-29.22656 -19.83333,-35.667043 l -3.04181,-2.914234 -3.3894,7.437553 C 100.9327,108.45284 101.06477,108.38081 89.364671,106.98384 79.747765,105.8356 64.337179,106.56093 47.5,108.95428 c -6.818533,0.96924 -6.125129,1.28504 -16.802414,-7.65242 l -7.404713,-6.198133 -2.173802,9.698133 C 17.133895,122.58121 15.859755,131.38931 15.304192,145 c -0.857704,21.01279 2.242423,35.68339 9.968477,47.1734 4.997642,7.43238 10.844656,11.39419 18.727331,12.68921 10.071618,1.65464 9.766037,1.77384 9.261441,-3.61261 z m -4.676734,-60.00477 c -6.31445,-2.24202 -7.942113,-4.66642 -4.842054,-7.21222 2.062595,-1.69383 2.622917,-1.72725 6.978927,-0.41629 4.209228,1.26679 5.321428,1.24136 9.994725,-0.22857 5.895552,-1.85438 8.641006,-0.84421 8.081952,2.97371 -0.730555,4.98913 -12.147463,7.74733 -20.21355,4.88337 z m 54.643123,-7.28459 c -3.11602,-1.25152 -3.81265,-3.65694 -1.72663,-5.96197 1.39375,-1.54008 2.5886,-1.81104 5.95276,-1.34993 2.87916,0.39464 5.19441,0.0673 7.32786,-1.03591 4.03393,-2.08603 6.87589,-2.04689 8.0837,0.11135 3.11656,5.56898 -11.26297,11.60007 -19.63769,8.23646 z"
       id="path41899" />
  </g>
</svg>
