<?xml version="1.0" encoding="UTF-8" standalone="no"?>
<!-- Created with Inkscape (http://www.inkscape.org/) -->

<svg
   version="1.1"
   id="svg343"
   width="275"
   height="275"
   viewBox="0 0 275 275"
   sodipodi:docname="WindingDown_Alcohol.svg"
   inkscape:version="1.2.1 (9c6d41e410, 2022-07-14)"
   xmlns:inkscape="http://www.inkscape.org/namespaces/inkscape"
   xmlns:sodipodi="http://sodipodi.sourceforge.net/DTD/sodipodi-0.dtd"
   xmlns:xlink="http://www.w3.org/1999/xlink"
   xmlns="http://www.w3.org/2000/svg"
   xmlns:svg="http://www.w3.org/2000/svg">
  <defs
     id="defs347">
    <linearGradient
       inkscape:collect="always"
       id="linearGradient6935">
      <stop
         style="stop-color:#6173b7;stop-opacity:1;"
         offset="0"
         id="stop6931" />
      <stop
         style="stop-color:#567bb8;stop-opacity:1;"
         offset="0.25"
         id="stop12051" />
      <stop
         style="stop-color:#4c84ba;stop-opacity:1;"
         offset="0.5"
         id="stop12045" />
      <stop
         style="stop-color:#428cbc;stop-opacity:1;"
         offset="0.75"
         id="stop12047" />
      <stop
         style="stop-color:#3d90bd;stop-opacity:1;"
         offset="0.875"
         id="stop12049" />
      <stop
         style="stop-color:#3895be;stop-opacity:1;"
         offset="1"
         id="stop11297" />
    </linearGradient>
    <linearGradient
       id="linearGradient6913"
       inkscape:swatch="solid">
      <stop
         style="stop-color:#007d6a;stop-opacity:1;"
         offset="0"
         id="stop6911" />
    </linearGradient>
    <linearGradient
       inkscape:collect="always"
       xlink:href="#linearGradient6935"
       id="linearGradient6939"
       x1="16.141848"
       y1="137.29166"
       x2="260"
       y2="137.29166"
       gradientUnits="userSpaceOnUse" />
  </defs>
  <sodipodi:namedview
     id="namedview345"
     pagecolor="#ffffff"
     bordercolor="#000000"
     borderopacity="0.25"
     inkscape:showpageshadow="2"
     inkscape:pageopacity="0.0"
     inkscape:pagecheckerboard="0"
     inkscape:deskcolor="#d1d1d1"
     showgrid="false"
     inkscape:zoom="2.9309091"
     inkscape:cx="126.41129"
     inkscape:cy="137.5"
     inkscape:window-width="1920"
     inkscape:window-height="1009"
     inkscape:window-x="-8"
     inkscape:window-y="-8"
     inkscape:window-maximized="1"
     inkscape:current-layer="g349" />
  <g
     inkscape:groupmode="layer"
     inkscape:label="Image"
     id="g349">
    <path
       style="mix-blend-mode:normal;fill:url(#linearGradient6939);fill-opacity:1;stroke:none;stroke-opacity:1"
       d="M 67,250.95144 C 57.024154,250.30763 52.929772,248.47912 50.634845,243.64292 47.497379,237.0312 49.492262,232.56463 57.753817,227.70344 63.5,224.32232 63.5,224.32232 63.353907,217.78957 63.152599,208.78777 62.19526,207.38898 55.253105,205.95333 47.10254,204.26778 40.344269,201.42305 34.771034,197.33192 20.663355,186.97594 16.70013,170.46119 16.572811,121.5 16.484636,87.591699 16.833967,85.99062 26.411263,76.407666 37.986122,64.825969 52.887358,59.659222 75,59.560358 c 27.58886,-0.123348 49.12819,9.725474 57.01867,26.07169 2.21781,4.594513 2.37403,6.204993 2.78115,28.670932 1.16623,64.35584 -6.25247,83.32753 -35.475297,90.72012 -10.179897,2.57524 -11.505858,4.11077 -11.116506,12.87349 0.27958,6.2922 0.436662,6.65697 3.698027,8.58737 C 98.802355,230.56589 102,234.45642 102,238.76514 c 0,4.22962 -2.510335,8.36725 -6.310349,10.40095 C 92.840152,250.6911 77.631247,251.63754 67,250.95144 Z m 26.012291,-9.51816 c 2.799968,-2.80149 1.825566,-4.6594 -4.149141,-7.91125 -7.518017,-4.09181 -9.125899,-7.27476 -8.46603,-16.75925 0.886806,-12.74631 3.184628,-15.45885 15.836463,-18.69464 24.750667,-6.33016 29.430267,-16.28726 31.402507,-66.81731 0.67542,-17.30453 0.67542,-17.30453 -3.73034,-13.22225 C 113.11049,128.03124 96.104235,133.41554 75.5,133.35416 54.878504,133.29273 39.64601,128.6022 28.657928,118.9301 24,114.83003 24,114.83003 24.010706,128.66501 c 0.01337,17.28288 2.247917,38.76954 4.93344,47.43841 3.736251,12.06063 12.282194,18.96955 27.733096,22.42068 11.296735,2.52324 14.305861,6.90406 14.317181,20.84355 0.0054,6.63379 -0.122617,6.99133 -3.759145,10.5 -2.070597,1.99779 -5.220597,4.39892 -7,5.33584 -5.023699,2.64516 -4.092437,6.92536 1.764722,8.11089 1.375,0.27831 8.450506,0.43393 15.723346,0.34582 11.91175,-0.14431 13.428229,-0.36519 15.288945,-2.22692 z M 92.792158,124.4467 c 10.585192,-2.13315 21.132852,-7.27201 26.982332,-13.1459 12.65989,-12.71269 8.16788,-27.811055 -11.0996,-37.307593 C 84.706303,62.179596 48.035858,65.553639 32.077246,81.040945 7.6680151,104.7293 47.902054,133.49305 92.792158,124.4467 Z M 66.421401,113.10367 C 52.667152,106.8568 52.714801,86.6733 66.499553,80.000216 79.328339,73.789908 94.123999,83.950517 92.770087,98.040953 91.528348,110.96397 78.326851,118.51085 66.421401,113.10367 Z M 185.25951,250.96055 c -6.09386,-1.09466 -13.34338,-4.29075 -15.74045,-6.93949 -2.01461,-2.22612 -26.5249,-139.00375 -26.50929,-147.932877 0.0261,-14.942285 13.95564,-28.322932 35.68975,-34.283441 12.28345,-3.368698 34.589,-3.080429 46.77853,0.604547 C 246.97638,68.908379 260,81.795701 260,96.569951 c 0,2.764465 -25.24488,140.087219 -26.57687,144.568279 -0.70575,2.3743 -7.29475,6.44142 -13.52804,8.35032 -6.42809,1.96856 -27.00337,2.843 -34.63558,1.472 z m 32.42989,-8.46095 c 9.38611,-2.78738 8.05237,1.39487 19.77209,-61.9996 5.79566,-31.35 10.7681,-57.99954 11.04987,-59.2212 0.46973,-2.0367 -0.008,-1.89654 -5.74954,1.68726 -23.5912,14.72503 -65.11469,13.96871 -85.46963,-1.55677 -1.8107,-1.38109 -3.29761,-2.15067 -3.30423,-1.71018 -0.0352,2.34379 20.25117,117.03505 20.92487,118.30089 3.36252,6.318 27.94578,8.90387 42.77657,4.4996 z m 1.61319,-118.12095 c 43.20574,-9.73292 44.36826,-44.563356 1.85152,-55.473657 -10.58797,-2.717 -28.74444,-2.710776 -39.36098,0.01349 -35.58727,9.131908 -42.4455,35.722597 -13.02249,50.490677 12.46793,6.25793 34.98313,8.47216 50.53195,4.96949 z M 197.14516,113.9845 c -17.65858,-7.48096 -15.18407,-32.60014 3.50226,-35.55212 15.13551,-2.391038 26.72801,15.598634 18.14482,28.1578 -4.58774,6.71291 -14.92256,10.24313 -21.64708,7.39432 z M 17.039869,55.548039 C 14.932006,53.00822 16.320686,50.798541 23.5,45.268623 42.319621,30.772677 70.602496,21.97093 94.187082,23.270513 104.23883,23.824395 107,24.843595 107,28 c 0,3.255194 -2.12501,3.916656 -9.520018,2.963347 -21.5201,-2.77421 -52.088248,6.373446 -70.278174,21.031061 -6.587609,5.308358 -8.229211,5.882426 -10.161939,3.553631 z M 249.30799,53.531636 C 233.33162,39.856452 208.66364,30.870783 186.5,30.652911 c -6.05,-0.05947 -12.20495,0.219698 -13.67767,0.620378 -2.50912,0.68265 -5.85206,-1.098893 -5.80702,-3.094718 0.16605,-7.358433 29.27216,-6.840641 52.48031,0.933615 18.46821,6.186474 38.92948,19.382564 38.31386,24.709768 -0.46166,3.994924 -3.6212,3.887029 -8.50149,-0.290318 z"
       id="path387" />
  </g>
</svg>
