<?xml version="1.0" encoding="UTF-8" standalone="no"?>
<!-- Created with Inkscape (http://www.inkscape.org/) -->

<svg
   version="1.1"
   id="svg13894"
   width="275"
   height="275"
   viewBox="0 0 275 275"
   sodipodi:docname="WindingDown_DimLights.svg"
   inkscape:version="1.2.1 (9c6d41e410, 2022-07-14)"
   xmlns:inkscape="http://www.inkscape.org/namespaces/inkscape"
   xmlns:sodipodi="http://sodipodi.sourceforge.net/DTD/sodipodi-0.dtd"
   xmlns:xlink="http://www.w3.org/1999/xlink"
   xmlns="http://www.w3.org/2000/svg"
   xmlns:svg="http://www.w3.org/2000/svg">
  <defs
     id="defs13898">
    <linearGradient
       inkscape:collect="always"
       id="linearGradient14281">
      <stop
         style="stop-color:#6173b7;stop-opacity:1;"
         offset="0"
         id="stop14277" />
      <stop
         style="stop-color:#4c84ba;stop-opacity:1;"
         offset="0.5"
         id="stop16463" />
      <stop
         style="stop-color:#428cbc;stop-opacity:1;"
         offset="0.75"
         id="stop16465" />
      <stop
         style="stop-color:#3d90bd;stop-opacity:1;"
         offset="0.875"
         id="stop16467" />
      <stop
         style="stop-color:#3895be;stop-opacity:1;"
         offset="1"
         id="stop14279" />
    </linearGradient>
    <linearGradient
       inkscape:collect="always"
       xlink:href="#linearGradient14281"
       id="linearGradient14283"
       x1="13"
       y1="137.48817"
       x2="260.95394"
       y2="137.48817"
       gradientUnits="userSpaceOnUse" />
  </defs>
  <sodipodi:namedview
     id="namedview13896"
     pagecolor="#ffffff"
     bordercolor="#000000"
     borderopacity="0.25"
     inkscape:showpageshadow="2"
     inkscape:pageopacity="0.0"
     inkscape:pagecheckerboard="0"
     inkscape:deskcolor="#d1d1d1"
     showgrid="false"
     inkscape:zoom="2.9309091"
     inkscape:cx="172.47208"
     inkscape:cy="145.68859"
     inkscape:window-width="1920"
     inkscape:window-height="1009"
     inkscape:window-x="-8"
     inkscape:window-y="-8"
     inkscape:window-maximized="1"
     inkscape:current-layer="g13900" />
  <g
     inkscape:groupmode="layer"
     inkscape:label="Image"
     id="g13900">
    <path
       style="fill:url(#linearGradient14283);fill-opacity:1"
       d="M 14.2,257.8 C 13.54,257.14 13,255.88 13,255 c 0,-3.67097 1.89147,-4 22.994514,-4 h 20.594514 l 3.624305,-4.75 C 74.372511,227.69304 97.937568,211.99151 120.8209,205.86684 l 8.10074,-2.16814 -1.80787,-2.59935 C 123.48503,195.88195 123,192.13868 123,169.35078 123,151.89099 122.7207,147 121.72368,147 c -0.70198,0 -6.21448,-2.39778 -12.25,-5.32841 C 103.43816,138.74097 96.475,135.7675 94,135.06388 81.756173,131.58309 73.786364,120.26056 70.918475,102.27246 69.5481,93.677131 68.612103,34.926134 69.689092,25.106109 c 0.867618,-7.910979 2.711713,-10.604925 5.88766,-8.600994 1.384503,0.873581 1.612938,5.871998 1.87353,40.994885 0.369785,49.83995 1.454006,56.31299 10.962089,65.44617 3.989221,3.83192 4.316081,3.33426 2.016638,-3.07044 C 88.072256,113.3114 86.206652,102.67094 85.426533,91.344152 84.766814,81.765498 84.840969,81.155478 86.792023,80.111306 91.525792,77.57787 92.524039,79.493087 93.509846,93 c 1.267245,17.36299 5.649292,32.27323 10.745124,36.56109 1.64789,1.38661 3.13138,2.3859 3.29663,2.22064 0.16526,-0.16525 -0.55686,-2.83995 -1.60471,-5.94378 -4.17155,-12.35658 -5.30722,-41.955946 -1.69689,-44.226928 1.27324,-0.800899 2.22676,-0.800986 3.5,-3.2e-4 1.49746,0.941667 1.8455,3.394146 2.41181,16.994885 0.87295,20.965063 3.89653,31.612293 10.73455,37.800613 L 123,138.30998 122.991,124.40499 c -0.005,-7.64775 -0.45369,-18.93334 -0.99774,-25.079093 -0.54406,-6.145756 -0.71706,-11.883256 -0.38446,-12.75 0.84932,-2.213301 6.09761,-2.074869 6.81318,0.17971 1.63363,5.147094 2.61877,31.044073 2.48194,65.244393 -0.16507,41.26189 0.0174,43.00303 4.97052,47.41667 5.40282,4.8144 11.8221,0.98036 14.56937,-8.70185 3.91011,-13.78044 6.48827,-58.14305 4.7489,-81.71482 -1.06904,-14.487665 -0.74617,-16 3.41586,-16 3.32089,0 4.61501,3.627138 9.3969,26.3375 5.26589,25.00899 7.24098,31.4264 10.8989,35.4125 8.99809,9.80534 11.98296,-2.80319 7.16121,-30.25 -2.414,-13.74126 -2.4238,-15.0106 -0.47471,-61.5 0.71777,-17.119958 -0.64558,-24.794069 -6.20002,-34.899127 -3.49117,-6.351402 -3.50612,-6.4305 -1.57975,-8.35687 2.5772,-2.577197 5.13355,-1.223883 8.46851,4.483166 6.64477,11.37107 8.86526,28.122976 6.73673,50.823649 -1.86199,19.858102 -1.5587,35.359972 0.97725,49.949182 4.47637,25.75237 2.03047,38.77917 -7.62109,40.58981 -4.6269,0.86801 -11.42041,-2.60779 -14.89413,-7.62037 -2.66628,-3.84744 -6.44775,-13.65062 -6.50923,-16.87467 -0.0264,-1.38523 -0.14026,-1.39768 -0.86643,-0.0948 -0.45981,0.825 -1.12193,7.35 -1.47139,14.5 -0.94472,19.32953 -3.86094,37.56156 -6.96494,43.54438 L 153.09576,204 l 2.20212,0.008 c 3.74493,0.013 14.21728,3.59051 22.16661,7.57246 13.84429,6.93483 27.61042,19.52684 37.29707,34.11599 l 3.5216,5.30391 h 19.42416 c 11.47722,0 20.21552,0.42352 21.35842,1.03518 2.17996,1.16668 2.53612,3.96296 0.73426,5.76482 -1.74269,1.74269 -243.857311,1.74269 -245.6,0 z m 210.37528,-22.71681 c -2.86109,-3.16148 -0.68998,-5.12249 13.35624,-12.06373 13.81193,-6.82547 16.14866,-7.13084 16.88293,-2.20629 0.26862,1.80157 -1.73329,3.13473 -13.73668,9.14787 C 233.34966,233.83247 226.8654,237 226.66832,237 c -0.19709,0 -1.13896,-0.86257 -2.09304,-1.91681 z M 40.822334,225.24647 C 28.185623,218.8472 27.5,218.34561 27.5,215.5 c 0,-4.77064 3.012064,-4.25992 17.401295,2.95054 C 56.365912,224.19547 58,225.32091 58,227.47197 c 0,5.37214 -2.922111,4.99356 -17.177666,-2.2255 z M 184.23832,200.83832 c -2.1211,-2.1211 -1.4668,-3.60197 6.73105,-15.23438 9.49446,-13.47225 10.1728,-14.1334 12.96671,-12.63815 3.34013,1.78758 2.51358,3.97205 -6.2718,16.57568 -8.24243,11.82469 -10.77075,13.95206 -13.42596,11.29685 z M 91.808978,195.25 c -0.825549,-0.9625 -4.749874,-6.37561 -8.720722,-12.02913 -7.362139,-10.48189 -8.294376,-13.44734 -4.896792,-15.5767 2.360887,-1.47964 3.917188,0.13825 13.185581,13.70741 6.826229,9.99377 7.666942,11.69771 6.680749,13.54043 -1.37187,2.56336 -4.217415,2.72638 -6.248816,0.35799 z"
       id="path14275" />
  </g>
</svg>
