<?xml version="1.0" encoding="UTF-8" standalone="no"?>
<!-- Created with Inkscape (http://www.inkscape.org/) -->

<svg
   version="1.1"
   id="svg26123"
   width="275"
   height="275"
   viewBox="0 0 275 275"
   sodipodi:docname="WindingDown_HotBath.svg"
   inkscape:version="1.2.1 (9c6d41e410, 2022-07-14)"
   xmlns:inkscape="http://www.inkscape.org/namespaces/inkscape"
   xmlns:sodipodi="http://sodipodi.sourceforge.net/DTD/sodipodi-0.dtd"
   xmlns:xlink="http://www.w3.org/1999/xlink"
   xmlns="http://www.w3.org/2000/svg"
   xmlns:svg="http://www.w3.org/2000/svg">
  <defs
     id="defs26127">
    <linearGradient
       inkscape:collect="always"
       id="linearGradient26502">
      <stop
         style="stop-color:#6173b7;stop-opacity:1;"
         offset="0"
         id="stop26498" />
      <stop
         style="stop-color:#567bb8;stop-opacity:1;"
         offset="0.25"
         id="stop28702" />
      <stop
         style="stop-color:#4c84ba;stop-opacity:1;"
         offset="0.5"
         id="stop28694" />
      <stop
         style="stop-color:#428cbc;stop-opacity:1;"
         offset="0.75"
         id="stop28696" />
      <stop
         style="stop-color:#3d90bd;stop-opacity:1;"
         offset="0.875"
         id="stop29430" />
      <stop
         style="stop-color:#3895be;stop-opacity:1;"
         offset="1"
         id="stop26500" />
    </linearGradient>
    <linearGradient
       inkscape:collect="always"
       xlink:href="#linearGradient26502"
       id="linearGradient26504"
       x1="2.9782484"
       y1="137.44531"
       x2="271.47554"
       y2="137.44531"
       gradientUnits="userSpaceOnUse" />
  </defs>
  <sodipodi:namedview
     id="namedview26125"
     pagecolor="#ffffff"
     bordercolor="#000000"
     borderopacity="0.25"
     inkscape:showpageshadow="2"
     inkscape:pageopacity="0.0"
     inkscape:pagecheckerboard="0"
     inkscape:deskcolor="#d1d1d1"
     showgrid="false"
     inkscape:zoom="2.9309091"
     inkscape:cx="137.6706"
     inkscape:cy="137.5"
     inkscape:window-width="1920"
     inkscape:window-height="1009"
     inkscape:window-x="-8"
     inkscape:window-y="-8"
     inkscape:window-maximized="1"
     inkscape:current-layer="g26129" />
  <g
     inkscape:groupmode="layer"
     inkscape:label="Image"
     id="g26129">
    <path
       style="fill:url(#linearGradient26504);fill-opacity:1"
       d="M 105,251.35593 C 86.675917,248.89999 76.622177,245.47872 66.877662,238.38297 61.897598,234.7566 55.509369,226.20924 54.439249,221.74055 c -0.929876,-3.88304 -1.820139,-4.10042 -5.782035,-1.4118 -7.705358,5.229 -17.647321,5.82189 -24.689788,1.4724 -2.108499,-1.30223 -4.839119,-2.06309 -6.967426,-1.94139 -2.075157,0.11866 -4.826789,-0.62254 -6.75914,-1.82068 -8.5710717,-5.31442 -9.45320672,-14.2566 -3.1888247,-32.32501 5.1000367,-14.71009 7.3434037,-26.27017 9.9633887,-51.34142 1.142199,-10.92996 2.961964,-23.64583 4.043923,-28.25749 5.054773,-21.545092 17.198231,-35.794683 35.151183,-41.247725 6.014567,-1.826868 7.684513,-1.96379 12.400311,-1.016722 4.799708,0.963919 6.549372,0.797393 14.669434,-1.396182 17.705155,-4.782916 35.450075,-7.56397 52.198105,-8.180693 l 15.97838,-0.588383 4.76741,-3.768417 c 7.42077,-5.865778 19.42495,-10.080345 30.41892,-10.679819 l 9.14308,-0.49855 0.63938,-3.998451 c 1.19587,-7.478577 9.37795,-12.75405 19.72558,-12.718256 7.77668,0.0269 13.16015,2.290665 17.67443,7.432149 4.22959,4.81723 5.17444,7.399759 5.17444,14.143107 0,9.203104 -4.00241,15.365853 -10.97381,16.897029 l -2.87988,0.632529 2.38307,3.511661 c 2.98929,4.404962 6.0105,12.488679 6.86244,18.361563 l 0.6528,4.5 5.40571,-0.338377 c 10.72145,-0.67112 21.80539,6.786252 28.23711,18.998167 2.76793,5.25547 2.81211,5.60996 2.78413,22.34021 -0.0324,19.37029 -1.1095,24.95642 -7.32708,38 -6.81667,14.30041 -18.35371,25.89845 -32.9336,33.10775 -6.81708,3.37084 -7.48849,4.00212 -10.36791,9.74824 -6.73311,13.43652 -18.32763,26.52453 -29.34298,33.12268 -12.57989,7.53529 -29.20419,10.53767 -57.5,10.38462 -10.175,-0.055 -23.225,-0.73334 -29,-1.50736 z m 64,-9.85723 c 18.98572,-4.10123 32.88,-15.18076 42.63604,-33.9987 4.84983,-9.35461 7.43696,-11.91711 16.33697,-16.18144 5.72336,-2.74228 9.49668,-5.57076 15.74698,-11.80393 13.6998,-13.66226 19.26986,-28.47084 19.56463,-52.01463 0.12341,-9.85612 -0.1277,-11.57194 -2.4147,-16.5 -2.9913,-6.44571 -8.89234,-12.522265 -13.70206,-14.109617 -5.91244,-1.951282 -11.12478,-0.654119 -18.14862,4.516537 -27.63842,20.34625 -66.29133,28.41921 -110.51924,23.08281 -15.07267,-1.81862 -15.5,-1.81724 -15.5,0.0501 0,2.43278 -3.660115,9.0723 -11.586096,21.01739 -9.092009,13.7024 -13.974481,23.38539 -19.844052,39.35502 -2.509139,6.82674 -5.93195,14.83954 -7.606247,17.80623 -2.892329,5.12493 -2.992576,5.67312 -2.009702,10.98998 3.212425,17.37761 17.033302,25.70718 48.546097,29.25778 12.3717,1.39394 49.57372,0.46069 58.5,-1.46754 z m 54.07828,-65.64505 c -2.82364,-3.03082 -3.31722,-8.00801 -2.92388,-29.484 0.34312,-18.73402 0.3668,-18.90792 3.29527,-24.19451 7.1377,-12.88525 20.99945,-13.47614 27.37807,-1.16707 2.03324,3.92362 2.26678,5.50407 1.84591,12.49193 -0.64764,10.75307 -4.55975,22.53706 -10.50586,31.6456 -7.97339,12.214 -14.35271,15.79241 -19.08951,10.70805 z M 238.02659,154.5 C 241.71846,146.9403 244,138.09652 244,131.34566 c 0,-4.08072 -0.52797,-5.84793 -2.39591,-8.01954 -2.08524,-2.42425 -2.75274,-2.65839 -5.14785,-1.80577 -5.38117,1.91561 -6.68794,5.17335 -7.48926,18.67054 -0.40193,6.77001 -0.48747,15.6576 -0.19009,19.7502 l 0.54069,7.44108 2.88942,-3.44108 c 1.58918,-1.8926 4.20799,-6.14109 5.81959,-9.44109 z M 41.673012,213.91625 c 8.313641,-4.02457 13.747919,-12.21431 20.884976,-31.47476 5.761983,-15.54959 11.504141,-26.79514 21.363672,-41.83899 5.326977,-8.12799 9.739335,-16.06843 10.628433,-19.12682 0.836114,-2.87613 2.424568,-6.04776 3.529898,-7.04807 1.911602,-1.72998 2.532199,-1.74224 12.714849,-0.25128 5.88784,0.86211 10.87568,1.41709 11.0841,1.2333 0.70465,-0.62141 -6.69727,-15.25184 -10.69362,-21.13674 C 102.76508,81.873549 92.538946,75.633709 80.5,75.54916 c -5.852662,-0.0411 -7.75044,0.392015 -11.578497,2.642487 -11.795549,6.934469 -16.582155,22.602703 -23.988732,78.523483 -4.132662,31.20223 -5.67198,36.58863 -13.546784,47.4031 -4.307106,5.91495 -4.691288,8.84081 -1.385987,10.55542 3.550713,1.84192 6.729608,1.63566 11.673012,-0.7574 z m -22.600049,-6.09668 c 0.375102,-1.40255 2.767419,-5.59577 5.31626,-9.31825 C 30.62943,189.38775 32.424357,182.69136 36.049492,155 42.386355,106.59455 47.328048,87.529589 56.13922,77.494218 57.859038,75.535454 59.093775,73.774772 58.883081,73.581592 57.739995,72.53353 46.806278,79.128072 42.49645,83.464994 32.916501,93.105169 29.126186,104.75568 26.543657,132.5 c -2.369535,25.45612 -4.902374,39.00914 -10.163633,54.38479 -5.215841,15.24293 -5.674689,19.64844 -2.328643,22.3579 2.787336,2.25705 4.139866,1.87374 5.021582,-1.42312 z M 200.08755,101.71998 c 4.61214,-3.108115 5.88039,-6.073221 5.89771,-13.788479 0.0211,-9.424816 -2.18486,-15.82496 -7.48741,-21.722671 -7.16224,-7.966135 -17.08386,-10.711471 -28.31378,-7.834498 -11.86925,3.040762 -18.97184,8.326538 -23.68416,17.62585 -6.43007,12.689132 -0.67583,18.68985 24.00009,25.028098 14.42916,3.70627 24.75598,3.9477 29.58755,0.6917 z M 181.5,97.471164 c -2.2,-0.792578 -4.06436,-1.447827 -4.14301,-1.456108 -0.9107,-0.09588 -1.10508,-3.617241 -0.28433,-5.150824 0.94576,-1.767168 1.70386,-1.913717 6.74641,-1.304166 6.60255,0.798125 8.18093,1.779606 8.18093,5.08713 0,1.658585 -0.79412,2.704229 -2.5651,3.377555 -3.15639,1.200058 -3.0458,1.207774 -7.9349,-0.553587 z m -27.34555,-8.165112 c -3.74785,-1.846629 -5.37886,-4.926787 -4.0011,-7.556052 0.95163,-1.816061 5.3167,-2.416489 6.27659,-0.863363 0.30138,0.48765 2.12431,1.182361 4.05096,1.543801 2.61673,0.490902 3.65977,1.281867 4.12271,3.126349 1.2863,5.125023 -3.88852,6.981802 -10.44916,3.749265 z m 70.3711,0.652607 c 0.3669,-0.593655 0.10934,-2.425888 -0.57234,-4.071629 -0.992,-2.394894 -1.75986,-2.931843 -3.84632,-2.689643 -1.98437,0.230349 -3.16964,1.437155 -4.96348,5.053647 -1.29613,2.613069 -2.09302,5.437907 -1.77087,6.277418 0.49897,1.300277 1.319,1.154807 5.53583,-0.982018 2.72255,-1.379622 5.25028,-2.99412 5.61718,-3.587775 z"
       id="path26496" />
  </g>
</svg>
